<svg width="26" height="42" viewBox="0 0 26 42" fill="none" xmlns="http://www.w3.org/2000/svg">
<path fill-rule="evenodd" clip-rule="evenodd" d="M4.85695 1.93383C4.18037 3.02555 3.21786 4.56846 2.7225 5.3661C2.22715 6.16375 1.41364 7.46898 0.918286 8.26662C0.422932 9.06427 0.00812289 9.72897 6.83572e-05 9.7471C-0.00798618 9.76522 0.696786 9.78335 1.5707 9.78738L3.15342 9.79947V20.7771C3.15342 32.8868 3.13731 32.0287 3.39908 33.346C3.99512 36.3593 5.67046 38.8449 8.10293 40.3355C10.3179 41.6931 13.1129 42.241 16.1011 41.9026C19.5645 41.5158 22.4158 39.7715 24.0831 37.024C24.9208 35.6423 25.4323 34.1195 25.6739 32.2986C25.7383 31.7951 25.7464 31.0981 25.7545 23.0613L25.7706 14.3718H19.8908L19.8746 22.7591C19.8626 31.8958 19.8746 31.3479 19.6411 32.351C19.2263 34.1316 18.2154 35.5134 16.8381 36.2063C16.0971 36.5769 15.4688 36.7058 14.4499 36.7058C13.6445 36.7058 13.282 36.6575 12.69 36.4641C11.0146 35.9162 9.77425 34.4297 9.29903 32.3913C9.06142 31.3721 9.07753 32.1778 9.06545 20.483L9.05337 9.77932H12.2349L12.098 9.56581C12.0255 9.45302 11.4496 8.52243 10.8173 7.50322C8.83187 4.29251 6.18595 0.050503 6.13763 0.002161C6.10541 -0.0361097 5.79531 0.427167 4.85695 1.93383Z" fill="#1363FF"/>
</svg>
